PathFileType	4	(X/Y/Z)	C:\Users\italobelli\Desktop\GitHub\PTbot_officialCBL\Personal_Results\FLX21_noisy1.trc
DataRate	CameraRate	NumFrames	NumMarkers	Units	OrigDataRate	OrigDataStartFrame	OrigNumFrames
107.000000	107.000000	38	9	m	107.000000	469	750
Frame#	Time		gu		centelbow		EpL		centpxt8		centijc7		ij		ts		aa		ai
			X1	Y1	Z1	X2	Y2	Z2	X3	Y3	Z3	X4	Y4	Z4	X5	Y5	Z5	X6	Y6	Z6	X7	Y7	Z7	X8	Y8	Z8	X9	Y9	Z9

469	4.3738	-0.057259	0.011772	0.15189	0.078021	-0.1779	0.23314	0.092009	-0.1537	0.24947	-0.046816	-0.15316	-0.008669	-0.046816	0.031938	-0.008669	0	0	0	-0.14186	0.023501	0.05419	-0.090082	0.029494	0.16064	-0.14611	-0.08829	0.068052
470	4.3832	-0.057217	0.010929	0.15217	0.075764	-0.18077	0.23232	0.090021	-0.15685	0.24885	-0.046816	-0.15316	-0.008669	-0.046816	0.031938	-0.008669	0	0	0	-0.14171	0.023745	0.054278	-0.089998	0.028919	0.16087	-0.14636	-0.088168	0.067495
471	4.3925	-0.057183	0.010106	0.15244	0.073502	-0.18355	0.23152	0.088024	-0.15992	0.24823	-0.046816	-0.15316	-0.008669	-0.046816	0.031938	-0.008669	0	0	0	-0.14155	0.023984	0.054361	-0.08992	0.028367	0.1611	-0.1466	-0.088046	0.066962
472	4.4019	-0.057158	0.0093024	0.15271	0.071238	-0.18625	0.23074	0.08602	-0.16291	0.24764	-0.046816	-0.15316	-0.008669	-0.046816	0.031938	-0.008669	0	0	0	-0.1414	0.024216	0.054441	-0.089849	0.027839	0.16132	-0.14685	-0.087923	0.066453
473	4.4112	-0.057141	0.0085207	0.15297	0.068974	-0.18885	0.22998	0.08401	-0.1658	0.24707	-0.046816	-0.15316	-0.008669	-0.046816	0.031938	-0.008669	0	0	0	-0.14125	0.024441	0.054517	-0.089786	0.027337	0.16153	-0.14708	-0.0878	0.065969
474	4.4206	-0.057133	0.007762	0.15323	0.066711	-0.19135	0.22925	0.081997	-0.16861	0.24651	-0.046816	-0.15316	-0.008669	-0.046816	0.031938	-0.008669	0	0	0	-0.1411	0.02466	0.054589	-0.08973	0.026862	0.16174	-0.14732	-0.087676	0.065511
475	4.4299	-0.057134	0.0070277	0.15348	0.064451	-0.19375	0.22854	0.079981	-0.17132	0.24598	-0.046816	-0.15316	-0.008669	-0.046816	0.031938	-0.008669	0	0	0	-0.14095	0.024872	0.054656	-0.089682	0.026414	0.16193	-0.14755	-0.087553	0.06508
476	4.4393	-0.057145	0.0063191	0.15373	0.062196	-0.19605	0.22786	0.077965	-0.17393	0.24548	-0.046816	-0.15316	-0.008669	-0.046816	0.031938	-0.008669	0	0	0	-0.1408	0.025076	0.054718	-0.089642	0.025996	0.16212	-0.14777	-0.08743	0.064678
477	4.4486	-0.057165	0.0056375	0.15397	0.059947	-0.19823	0.2272	0.07595	-0.17644	0.24499	-0.046816	-0.15316	-0.008669	-0.046816	0.031938	-0.008669	0	0	0	-0.14065	0.025274	0.054775	-0.08961	0.025608	0.1623	-0.148	-0.087307	0.064303
478	4.4579	-0.057194	0.0049844	0.15421	0.057708	-0.20031	0.22658	0.073937	-0.17884	0.24454	-0.046816	-0.15316	-0.008669	-0.046816	0.031938	-0.008669	0	0	0	-0.1405	0.025464	0.054826	-0.089586	0.025252	0.16247	-0.14821	-0.087185	0.063959
479	4.4673	-0.057233	0.004361	0.15444	0.055478	-0.20227	0.22599	0.071929	-0.18114	0.24411	-0.046816	-0.15316	-0.008669	-0.046816	0.031938	-0.008669	0	0	0	-0.14036	0.025646	0.054872	-0.08957	0.024929	0.16263	-0.14843	-0.087063	0.063644
480	4.4766	-0.057282	0.0037688	0.15467	0.05326	-0.20411	0.22543	0.069926	-0.18332	0.24372	-0.046816	-0.15316	-0.008669	-0.046816	0.031938	-0.008669	0	0	0	-0.14022	0.025821	0.054912	-0.089563	0.024639	0.16278	-0.14863	-0.086942	0.063362
481	4.486	-0.057342	0.0032089	0.15489	0.051057	-0.20583	0.22491	0.067932	-0.18539	0.24335	-0.046816	-0.15316	-0.008669	-0.046816	0.031938	-0.008669	0	0	0	-0.14008	0.025987	0.054945	-0.089566	0.024385	0.16292	-0.14884	-0.086822	0.063111
482	4.4953	-0.057411	0.0026829	0.1551	0.048869	-0.20742	0.22443	0.065946	-0.18734	0.24302	-0.046816	-0.15316	-0.008669	-0.046816	0.031938	-0.008669	0	0	0	-0.13994	0.026146	0.054972	-0.089577	0.024168	0.16305	-0.14903	-0.086703	0.062893
483	4.5047	-0.057492	0.0021876	0.15531	0.046685	-0.2089	0.22398	0.063958	-0.18918	0.24272	-0.046816	-0.15316	-0.008669	-0.046816	0.031938	-0.008669	0	0	0	-0.1398	0.026297	0.054993	-0.089597	0.023984	0.16317	-0.14923	-0.086584	0.062706
484	4.514	-0.057584	0.0016975	0.15553	0.044433	-0.21035	0.22354	0.061891	-0.19099	0.24244	-0.046816	-0.15316	-0.008669	-0.046816	0.031938	-0.008669	0	0	0	-0.13966	0.026447	0.055014	-0.089621	0.023807	0.16329	-0.14942	-0.086461	0.062526
485	4.5234	-0.057689	0.0012083	0.15574	0.042103	-0.21178	0.22312	0.059737	-0.19277	0.24216	-0.046816	-0.15316	-0.008669	-0.046816	0.031938	-0.008669	0	0	0	-0.13953	0.026597	0.055034	-0.089648	0.023635	0.16341	-0.14961	-0.086333	0.06235
486	4.5327	-0.057806	0.00072053	0.15595	0.039699	-0.21319	0.2227	0.057498	-0.19454	0.24189	-0.046816	-0.15316	-0.008669	-0.046816	0.031938	-0.008669	0	0	0	-0.13939	0.026746	0.055055	-0.089678	0.023466	0.16352	-0.14981	-0.086201	0.062177
487	4.5421	-0.057934	0.00023432	0.15617	0.037225	-0.21459	0.22229	0.055179	-0.19628	0.24162	-0.046816	-0.15316	-0.008669	-0.046816	0.031938	-0.008669	0	0	0	-0.13925	0.026894	0.055076	-0.089712	0.0233	0.16364	-0.15	-0.086064	0.062009
488	4.5514	-0.058072	-0.00025003	0.15639	0.034683	-0.21597	0.22189	0.052785	-0.198	0.24137	-0.046816	-0.15316	-0.008669	-0.046816	0.031938	-0.008669	0	0	0	-0.13911	0.027043	0.055097	-0.089748	0.023138	0.16376	-0.15019	-0.085923	0.061844
489	4.5607	-0.058221	-0.00073223	0.1566	0.032079	-0.21733	0.2215	0.050318	-0.1997	0.24112	-0.046816	-0.15316	-0.008669	-0.046816	0.031938	-0.008669	0	0	0	-0.13898	0.02719	0.055119	-0.089787	0.02298	0.16387	-0.15039	-0.085778	0.061682
490	4.5701	-0.05838	-0.001212	0.15682	0.029416	-0.21867	0.22111	0.047783	-0.20138	0.24088	-0.046816	-0.15316	-0.008669	-0.046816	0.031938	-0.008669	0	0	0	-0.13884	0.027337	0.05514	-0.089829	0.022825	0.16398	-0.15058	-0.085629	0.061524
491	4.5794	-0.058547	-0.0016891	0.15704	0.026698	-0.21999	0.22073	0.045184	-0.20304	0.24065	-0.046816	-0.15316	-0.008669	-0.046816	0.031938	-0.008669	0	0	0	-0.1387	0.027483	0.055162	-0.089873	0.022673	0.16409	-0.15078	-0.085477	0.06137
492	4.5888	-0.058724	-0.0021632	0.15726	0.023927	-0.22129	0.22036	0.042525	-0.20467	0.24042	-0.046816	-0.15316	-0.008669	-0.046816	0.031938	-0.008669	0	0	0	-0.13856	0.027628	0.055183	-0.08992	0.022525	0.1642	-0.15097	-0.085322	0.061218
493	4.5981	-0.058909	-0.0026341	0.15748	0.021109	-0.22258	0.22	0.03981	-0.20627	0.2402	-0.046816	-0.15316	-0.008669	-0.046816	0.031938	-0.008669	0	0	0	-0.13842	0.027772	0.055205	-0.089969	0.02238	0.16431	-0.15116	-0.085164	0.06107
494	4.6075	-0.059102	-0.0031014	0.1577	0.018247	-0.22384	0.21964	0.037043	-0.20785	0.23998	-0.046816	-0.15316	-0.008669	-0.046816	0.031938	-0.008669	0	0	0	-0.13828	0.027915	0.055227	-0.09002	0.022238	0.16442	-0.15135	-0.085003	0.060925
495	4.6168	-0.059302	-0.0035649	0.15792	0.015345	-0.22508	0.21928	0.034228	-0.20941	0.23977	-0.046816	-0.15316	-0.008669	-0.046816	0.031938	-0.008669	0	0	0	-0.13814	0.028057	0.055248	-0.090074	0.0221	0.16452	-0.15154	-0.08484	0.060783
496	4.6262	-0.059509	-0.0040244	0.15813	0.012406	-0.2263	0.21893	0.031368	-0.21094	0.23956	-0.046816	-0.15316	-0.008669	-0.046816	0.031938	-0.008669	0	0	0	-0.13801	0.028198	0.05527	-0.090129	0.021965	0.16463	-0.15173	-0.084674	0.060644
497	4.6355	-0.059722	-0.0044795	0.15835	0.0094339	-0.22751	0.21859	0.028469	-0.21244	0.23936	-0.046816	-0.15316	-0.008669	-0.046816	0.031938	-0.008669	0	0	0	-0.13787	0.028337	0.055291	-0.090186	0.021833	0.16473	-0.15192	-0.084507	0.060508
498	4.6449	-0.059941	-0.00493	0.15857	0.0064329	-0.22868	0.21825	0.025533	-0.21392	0.23916	-0.046816	-0.15316	-0.008669	-0.046816	0.031938	-0.008669	0	0	0	-0.13773	0.028475	0.055312	-0.090245	0.021704	0.16483	-0.1521	-0.084339	0.060375
499	4.6542	-0.060166	-0.0053756	0.15878	0.0034066	-0.22984	0.21792	0.022565	-0.21537	0.23896	-0.046816	-0.15316	-0.008669	-0.046816	0.031938	-0.008669	0	0	0	-0.13759	0.028612	0.055334	-0.090306	0.021578	0.16493	-0.15228	-0.084168	0.060244
500	4.6636	-0.060395	-0.005816	0.15899	0.00035874	-0.23097	0.21759	0.019568	-0.2168	0.23877	-0.046816	-0.15316	-0.008669	-0.046816	0.031938	-0.008669	0	0	0	-0.13745	0.028747	0.055355	-0.090368	0.021455	0.16503	-0.15246	-0.083997	0.060116
501	4.6729	-0.060629	-0.0062509	0.1592	-0.002707	-0.23208	0.21726	0.016548	-0.2182	0.23858	-0.046816	-0.15316	-0.008669	-0.046816	0.031938	-0.008669	0	0	0	-0.13732	0.02888	0.055375	-0.090432	0.021336	0.16512	-0.15264	-0.083825	0.059991
502	4.6822	-0.060867	-0.0066801	0.15941	-0.0057868	-0.23317	0.21694	0.013507	-0.21956	0.23839	-0.046816	-0.15316	-0.008669	-0.046816	0.031938	-0.008669	0	0	0	-0.13718	0.029012	0.055396	-0.090497	0.021219	0.16522	-0.15282	-0.083652	0.059868
503	4.6916	-0.061108	-0.0071033	0.15962	-0.0088769	-0.23423	0.21661	0.010449	-0.2209	0.23821	-0.046816	-0.15316	-0.008669	-0.046816	0.031938	-0.008669	0	0	0	-0.13704	0.029142	0.055416	-0.090563	0.021105	0.16531	-0.15299	-0.083479	0.059748
504	4.7009	-0.061353	-0.0075202	0.15982	-0.011974	-0.23527	0.2163	0.0073798	-0.22221	0.23803	-0.046816	-0.15316	-0.008669	-0.046816	0.031938	-0.008669	0	0	0	-0.1369	0.029271	0.055437	-0.09063	0.020995	0.1654	-0.15316	-0.083306	0.059629
505	4.7103	-0.0616	-0.0079306	0.16002	-0.015073	-0.23629	0.21598	0.0043018	-0.22349	0.23784	-0.046816	-0.15316	-0.008669	-0.046816	0.031938	-0.008669	0	0	0	-0.13677	0.029397	0.055456	-0.090698	0.020887	0.16549	-0.15333	-0.083133	0.059514
506	4.7196	-0.061848	-0.0083341	0.16022	-0.018171	-0.23727	0.21567	0.0012196	-0.22475	0.23766	-0.046816	-0.15316	-0.008669	-0.046816	0.031938	-0.008669	0	0	0	-0.13663	0.029521	0.055476	-0.090767	0.020782	0.16558	-0.15349	-0.08296	0.0594
